<?xml version="1.0" standalone="no"?>
<!DOCTYPE svg PUBLIC "-//W3C//DTD SVG 20010904//EN"
 "http://www.w3.org/TR/2001/REC-SVG-20010904/DTD/svg10.dtd">
<svg version="1.0" xmlns="http://www.w3.org/2000/svg"
 width="512.000000pt" height="512.000000pt" viewBox="0 0 512.000000 512.000000"
 preserveAspectRatio="xMidYMid meet">

<g transform="translate(0.000000,512.000000) scale(0.100000,-0.100000)"
fill="#000000" stroke="none">
<path d="M1055 4556 c-118 -51 -124 -224 -11 -289 16 -9 398 -13 1696 -17
l1675 -5 57 -28 c64 -32 111 -80 142 -146 21 -45 21 -58 26 -923 5 -866 5
-877 26 -904 39 -53 71 -69 134 -69 63 0 95 16 134 69 21 27 21 37 24 894 3
975 5 944 -70 1094 -81 161 -243 285 -423 323 -100 21 -3363 22 -3410 1z"/>
<path d="M650 3914 c-174 -37 -338 -164 -418 -321 -77 -155 -73 -70 -70 -1523
l3 -1295 28 -57 c64 -131 210 -195 351 -154 48 14 109 56 362 246 168 127 315
232 327 235 12 3 600 6 1307 8 l1285 2 73 27 c211 77 355 240 407 460 12 53
15 199 15 949 0 849 -1 889 -20 963 -45 179 -164 328 -320 405 -153 75 -49 71
-1745 70 -1261 0 -1531 -3 -1585 -15z m3182 -337 c64 -32 111 -80 142 -146 21
-46 21 -52 21 -941 0 -889 0 -895 -21 -941 -31 -66 -78 -114 -142 -146 l-57
-28 -1305 -5 -1305 -5 -60 -24 c-40 -16 -149 -92 -342 -238 l-283 -214 0 1229
c0 1346 -3 1284 59 1369 37 50 81 83 146 105 47 16 147 17 1570 15 l1520 -2
57 -28z"/>
<path d="M1522 2609 c-67 -43 -91 -139 -51 -208 33 -59 64 -76 139 -76 49 0
72 5 92 20 33 24 68 91 68 130 0 43 -35 107 -73 133 -45 30 -128 30 -175 1z"/>
<path d="M2162 2609 c-67 -43 -91 -139 -51 -208 33 -59 64 -76 139 -76 49 0
72 5 92 20 33 24 68 91 68 130 0 43 -35 107 -73 133 -45 30 -128 30 -175 1z"/>
<path d="M2783 2609 c-36 -23 -73 -91 -73 -134 0 -39 35 -106 67 -129 38 -28
121 -33 167 -11 46 22 86 87 86 141 0 47 -34 107 -76 134 -40 27 -128 27 -171
-1z"/>
</g>
</svg>
